<mxfile host="app.diagrams.net" modified="2024-03-15T07:17:38.639Z" agent="Mozilla/5.0 (Windows NT 10.0; Win64; x64) AppleWebKit/537.36 (KHTML, like Gecko) Chrome/122.0.0.0 Safari/537.36" version="24.0.7" etag="sZTTl1hLH7aMYvDQKhnE" type="github">
  <diagram name="Page-1" id="pn-R7Hx57c_LS36lNOlB">
    <mxGraphModel>
      <root>
        <mxCell id="0" />
        <mxCell id="1" parent="0" />
      </root>
    </mxGraphModel>
  </diagram>
</mxfile>
